<svg xmlns="http://www.w3.org/2000/svg" version="1.1" xmlns:xlink="http://www.w3.org/1999/xlink" xmlns:svgjs="http://svgjs.dev/svgjs" width="1000" height="1125" viewBox="0 0 1000 1125"><g transform="matrix(1,0,0,1,1.7053025658242404e-13,0)"><svg viewBox="0 0 320 360" data-background-color="#ffffff" preserveAspectRatio="xMidYMid meet" height="1125" width="1000" xmlns="http://www.w3.org/2000/svg" xmlns:xlink="http://www.w3.org/1999/xlink"><g id="tight-bounds" transform="matrix(1,0,0,1,0,0)"><svg viewBox="0 0 320 360" height="360" width="320"><g><svg></svg></g><g><svg viewBox="0 0 320 360" height="360" width="320"><g><path xmlns="http://www.w3.org/2000/svg" d="M20.961 227.22l3.726 4.658-1.863-6.056c-0.466-2.795-3.726 0.466-1.863 1.398M25.153 224.425c1.397 2.329 2.795 4.658 2.795 6.987 0 3.261 2.795 4.658 5.123 5.589-3.261-3.726-5.124-13.974-7.918-12.576M204.017 26.929c7.918 0 15.371-0.932 23.756 0.931 20.495 5.124 37.729 15.371 49.374 29.811l32.606 52.169c1.397 13.042 4.192 27.482 3.726 43.319 3.261 0 2.795-4.658 6.521-5.59-3.726 9.316-5.59 20.961-6.521 34.469-2.329-7.453 0-18.632 0.466-24.687-3.261 5.124-5.124 1.397-5.124-0.932 0.466-3.726-1.397-3.261-2.795-4.658-5.124-4.658-8.384-9.782-12.11-17.7 2.329-6.055 2.795-14.905-4.658-19.563-2.329-1.397-5.124-3.726-6.521-7.453-1.863-5.124-5.124-11.179-4.193-19.097 0.466-2.329-6.987 5.124-11.179 1.863-18.166-12.576-36.332-27.016-58.224-39.127-11.645 0-20.029-4.192-24.221-9.316-3.726-4.658-0.932-10.713 4.658-11.179 3.261 0 6.987-0.932 9.782 0.932 0.466-1.863 2.329-4.192 4.657-4.192M157.904 16.215l0.932 0.466c4.658 0.932 6.987 7.453 12.11 5.124 0 3.261 0.466 6.521-0.466 8.85-1.397 3.726-5.59 3.726-8.85 3.726-31.208-1.863-49.374 11.179-68.471 22.358-5.124 3.261-10.713 5.59-14.906 9.782-20.029 18.632-41.921 35.866-47.045 70.335l-4.192 38.195c-0.466 4.192-5.124 8.384-4.192 13.508l3.26 22.824c-3.261-3.261-5.124 0.932-4.192 2.795 0.466 1.397 2.329 6.055 5.124 1.863 3.726 6.987 7.453 20.495 12.576 26.55 15.837 18.632 36.332 35.4 53.101 52.169 4.192-0.932 7.453-0.932 8.384-3.727 1.397 2.795-1.397 5.59-3.726 6.056 7.453 4.658 15.837 8.85 27.016 9.781 14.44 0.932 27.948 3.261 40.524 6.522 6.521-1.863 13.042-2.795 20.029-3.261 2.329 0 3.726-3.726 6.521-4.658l0.466-4.658c2.795 4.192 2.329-1.397 0.466-4.192 3.261 2.795 4.192 5.124 5.589 6.987 0-1.397 3.726-6.521 3.727-0.466l0.931-6.055c1.397-0.932 1.863 5.124 3.261 0.931 1.397-4.192 4.192-0.932 6.987-2.329-0.932 1.863-0.466 5.59 2.794 3.261l3.727-3.261c2.329 5.59 6.055 3.261 7.918 2.329 20.495-13.042 40.99-28.413 60.553-43.784l-0.466 6.055 2.329-7.453c2.329 2.329 4.192 0.466 5.124-0.931 2.795-4.658 6.521-9.316 12.577-13.508-7.453 20.029-16.303 35.866-27.482 48.908l-4.658 5.59c0 3.261-0.932 7.453-4.658 7.918-1.863 0.466-5.59-0.932-8.384 1.863-1.397 1.863 3.261 5.59-0.466 2.795-3.261-2.329-6.521 0-10.248 0.932-2.795 0.932 1.863 3.726 2.795 5.589 0.932 1.863 1.863 3.726 1.398 6.056l-5.124-5.59c-6.055 3.261-9.782 9.316-14.906 13.974-2.329 1.863-1.397 5.124-1.397 7.918-3.261 0-6.987-0.932-8.85 0.932-1.397 1.863-0.932 4.658-0.932 7.453-4.658-0.466-5.124-7.453-9.315-6.056-4.192 0.932-8.85 1.397-12.577 3.727 2.795 5.59-4.658 2.329-3.726 3.26-6.987-4.192-13.042-7.453-20.495-4.658-15.837-5.124-35.4-2.795-49.84-0.931 0-2.329 0.466-4.658-0.466-5.124-0.932 2.329-3.726 1.397-3.26 1.397-8.85-6.055-17.7-9.782-27.016-14.905-8.384 0.932-16.303-3.261-18.632-5.59-6.521-6.055-13.974-2.795-20.029-4.192-13.042-3.261-17.7-16.769-19.098-26.084-0.932-4.658-4.658-6.521-6.055-6.056-6.055-19.563-15.371-37.263-22.824-55.429-1.863-4.658-1.397-9.316-1.397-14.44 2.329 0.932 4.658 0.466 4.192-2.794-2.329-15.371-7.918-27.016-13.974-38.195 3.261-15.837 3.726-34.469 11.179-48.443 6.521-12.576 18.632-19.098 27.016-29.811 2.795-3.726 2.795-8.85 5.59-12.11 9.316-9.316 18.632-19.098 28.879-27.482 4.658-3.726 10.247 0 17.234-1.397 2.329-8.384 11.645-15.837 20.495-13.508 3.726 0.932 11.179-8.85 13.508-9.782 3.726-1.397 1.863 3.726 1.863 6.987 8.85-6.987 20.961-10.713 32.14-14.906" fill="#ed1703" fill-rule="nonzero" stroke="none" stroke-width="1" stroke-linecap="butt" stroke-linejoin="miter" stroke-miterlimit="10" stroke-dasharray="" stroke-dashoffset="0" font-family="none" font-weight="none" font-size="none" text-anchor="none" style="mix-blend-mode: normal" data-fill-palette-color="tertiary"></path></g><g transform="matrix(1,0,0,1,64,142.31108991855206)"><svg viewBox="0 0 192 75.37782016289592" height="75.37782016289592" width="192"><g><svg viewBox="0 0 192 75.37782016289592" height="75.37782016289592" width="192"><g><svg viewBox="0 0 192 75.37782016289592" height="75.37782016289592" width="192"><g><svg viewBox="0 0 192 75.37782016289592" height="75.37782016289592" width="192"><g id="textblocktransform"><svg viewBox="0 0 192 75.37782016289592" height="75.37782016289592" width="192" id="textblock"><g><svg viewBox="0 0 192 42.73303167420814" height="42.73303167420814" width="192"><g transform="matrix(1,0,0,1,0,0)"><svg width="192" viewBox="0.05000000074505806 -38.849998474121094 176.77999877929688 39.349998474121094" height="42.73303167420814" data-palette-color="#ed1703"><path d="M8.7-36.25L8.7-36.25 30.15-36.25 9.55-5.25 30.6-5.25 30.6 0 0.05 0Q0.55-0.65 1.6-2.25 2.65-3.85 4.05-6.03 5.45-8.2 7.13-10.8 8.8-13.4 10.55-16.07 12.3-18.75 13.98-21.35 15.65-23.95 17.05-26.1 18.45-28.25 19.5-29.8 20.55-31.35 21.05-32L21.05-32 6.55-32Q5.75-32 4.98-32.23 4.2-32.45 3.6-32.85 3-33.25 2.63-33.85 2.25-34.45 2.25-35.2L2.25-35.2 2.25-38.1 7.15-38.1 7.15-37.4Q7.15-36.5 7.5-36.38 7.85-36.25 8.7-36.25ZM48.75-5.55L51.95-2.45Q50.45-1.1 48.3-0.3 46.15 0.5 43.9 0.5L43.9 0.5Q41.6 0.5 39.57-0.38 37.55-1.25 36.05-2.73 34.55-4.2 33.67-6.2 32.8-8.2 32.8-10.45L32.8-10.45Q32.8-12.7 33.67-14.7 34.55-16.7 36.05-18.2 37.55-19.7 39.52-20.58 41.5-21.45 43.75-21.45L43.75-21.45Q47.3-21.45 49.92-19.33 52.55-17.2 53.7-13.75L53.7-13.75Q52.15-13.2 50.15-12.4 48.15-11.6 46-10.73 43.85-9.85 41.7-9 39.55-8.15 37.7-7.45L37.7-7.45Q38.55-5.75 40.17-4.73 41.8-3.7 43.8-3.7L43.8-3.7Q45.15-3.7 46.52-4.2 47.9-4.7 48.75-5.55L48.75-5.55ZM48.35-14.75L48.35-14.75Q47.75-16 46.45-16.63 45.15-17.25 43.8-17.25L43.8-17.25Q42.35-17.25 41.12-16.7 39.9-16.15 39-15.23 38.1-14.3 37.57-13.1 37.05-11.9 37.05-10.65L37.05-10.65Q37.05-10.4 37.07-10.3 37.1-10.2 37.1-10.15L37.1-10.15Q38.4-10.65 39.92-11.28 41.45-11.9 42.95-12.53 44.45-13.15 45.85-13.73 47.25-14.3 48.35-14.75ZM57.4 0L57.4-20.9 61.15-20.9Q61.25-19.35 61.32-18.07 61.4-16.8 61.5-15.55L61.5-15.55Q62.65-18.25 64.77-19.85 66.9-21.45 70-21.45L70-21.45Q73.15-21.45 75.05-19.7 76.95-17.95 77.05-15.2L77.05-15.2 77.05 0 72.75 0 72.75-13.25Q72.65-14.85 71.65-15.98 70.65-17.1 68.5-17.2L68.5-17.2Q67-17.2 65.75-16.68 64.5-16.15 63.6-15.25 62.7-14.35 62.17-13.1 61.65-11.85 61.65-10.35L61.65-10.35 61.65 0 57.4 0ZM96.29-31.15L96.29-18.1 101.24-18.1Q103.24-18.1 104.59-18.8 105.94-19.5 106.72-20.5 107.49-21.5 107.81-22.65 108.14-23.8 108.14-24.7L108.14-24.7Q108.14-25.65 107.81-26.78 107.49-27.9 106.69-28.88 105.89-29.85 104.56-30.5 103.24-31.15 101.29-31.15L101.29-31.15 96.29-31.15ZM96.29 0L90.79 0 90.79-36.25 100.69-36.25Q103.54-36.25 105.92-35.5 108.29-34.75 110.02-33.27 111.74-31.8 112.69-29.68 113.64-27.55 113.64-24.8L113.64-24.8Q113.64-22.65 112.99-20.53 112.34-18.4 110.89-16.73 109.44-15.05 107.09-14 104.74-12.95 101.39-12.95L101.39-12.95 96.29-12.95 96.29 0ZM114.04-10.25L114.04-10.25Q114.04-12.55 114.91-14.58 115.79-16.6 117.29-18.13 118.79-19.65 120.76-20.55 122.74-21.45 124.99-21.45L124.99-21.45Q126.49-21.45 127.74-21.08 128.99-20.7 129.89-20.15 130.79-19.6 131.34-19 131.89-18.4 132.09-17.95L132.09-17.95 132.29-20.9 136.39-20.9 136.39 0 132.09 0 132.09-2.65Q131.84-2.25 131.29-1.7 130.74-1.15 129.86-0.68 128.99-0.2 127.79 0.15 126.59 0.5 125.04 0.5L125.04 0.5Q122.64 0.5 120.61-0.38 118.59-1.25 117.14-2.73 115.69-4.2 114.86-6.15 114.04-8.1 114.04-10.25ZM118.34-10.5L118.34-10.5Q118.34-9.05 118.86-7.8 119.39-6.55 120.29-5.65 121.19-4.75 122.44-4.23 123.69-3.7 125.19-3.7L125.19-3.7Q126.69-3.7 127.96-4.23 129.24-4.75 130.16-5.68 131.09-6.6 131.59-7.83 132.09-9.05 132.09-10.5L132.09-10.5Q132.09-11.95 131.59-13.18 131.09-14.4 130.16-15.3 129.24-16.2 127.96-16.73 126.69-17.25 125.19-17.25L125.19-17.25Q123.69-17.25 122.44-16.73 121.19-16.2 120.29-15.3 119.39-14.4 118.86-13.18 118.34-11.95 118.34-10.5ZM154.83-21.45L153.88-15.95Q152.48-15.95 151.19-15.58 149.88-15.2 148.86-14.45 147.83-13.7 147.23-12.58 146.63-11.45 146.63-10L146.63-10 146.63 0 142.38 0 142.38-20.9 146.13-20.9Q146.23-19.35 146.31-18.07 146.38-16.8 146.48-15.55L146.48-15.55Q147.13-16.9 148.19-18 149.23-19.1 150.44-19.85 151.63-20.6 152.78-21.03 153.94-21.45 154.83-21.45L154.83-21.45ZM172.78-21.45L172.78-21.45 175.33-18.9Q173.43-17.15 171.71-15.5 169.98-13.85 168.08-12.05L168.08-12.05Q170.33-9.05 172.48-6.03 174.63-3 176.83 0L176.83 0 171.93 0Q170.23-2.35 168.51-4.63 166.78-6.9 165.08-9.25L165.08-9.25 162.18-6.6 162.18 0 157.93 0 157.93-38.85 162.18-38.85 162.18-11.6Q164.98-14.15 167.53-16.53 170.08-18.9 172.78-21.45Z" opacity="1" transform="matrix(1,0,0,1,0,0)" fill="#ed1703" class="undefined-text-0" data-fill-palette-color="primary" id="text-0"></path></svg></g></svg></g><g transform="matrix(1,0,0,1,0,48.96880658823529)"><svg viewBox="0 0 192 26.40901357466063" height="26.40901357466063" width="192"><g transform="matrix(1,0,0,1,0,0)"><svg width="192" viewBox="2.25 -37.70000076293945 364.9700012207031 50.20000076293945" height="26.40901357466063" data-palette-color="#ed1703"><path d="M27.4 0L24.1-9.25 8.7-9.25 5.5 0 2.25 0 14.9-35 17.95-35 31.05 0 27.4 0ZM16.25-31.2L9.55-11.75 23.2-11.75 16.25-31.2ZM38.24-25.25L38.24-22.25Q41.99-25 45.34-25.15L45.34-25.15Q48.39-25.15 50.04-24.4 51.69-23.65 52.77-22.28 53.84-20.9 53.84-18.4L53.84-18.4 53.84 0 50.59 0 50.59-17.55Q50.59-19.4 49.79-20.4L49.79-20.4Q48.19-22.25 44.89-22.25L44.89-22.25Q41.74-22.1 38.24-20.2L38.24-20.2 38.24 0 34.99 0 34.99-25 38.24-25.25ZM78.48-12.3L78.48-11.5Q78.48-2.7 86.88-2.7L86.88-2.7Q90.43-2.7 93.38-3.65L93.38-3.65Q94.13-3.9 94.43-4.05L94.43-4.05 95.18-1.4Q93.43-0.35 88.83 0.1L88.83 0.1Q87.53 0.2 86.08 0.2L86.08 0.2Q81.88 0.2 79.08-1.9L79.08-1.9Q75.23-4.75 75.23-11.4 75.23-18.05 78.71-21.63 82.18-25.2 87.13-25.2 92.08-25.2 94.58-22L94.58-22Q96.48-19.45 96.48-15.25L96.48-15.25Q96.48-14.25 96.38-13.15L96.38-13.15 78.53-13.15Q78.48-12.75 78.48-12.3L78.48-12.3ZM87.33-22.1L87.33-22.1Q84.23-22.1 82.03-20.23 79.83-18.35 78.98-15.4L78.98-15.4 93.53-15.4Q93.28-20.95 89.23-21.85L89.23-21.85Q88.33-22.1 87.33-22.1ZM108.88 0L99.98-25 103.63-25.25 111.08-2.35 120.68-25 124.18-25 107.58 12.5 104.53 12.5 110.03 0 108.88 0ZM128.92-12.3L128.92-11.5Q128.92-2.7 137.32-2.7L137.32-2.7Q140.87-2.7 143.82-3.65L143.82-3.65Q144.57-3.9 144.87-4.05L144.87-4.05 145.62-1.4Q143.87-0.35 139.27 0.1L139.27 0.1Q137.97 0.2 136.52 0.2L136.52 0.2Q132.32 0.2 129.52-1.9L129.52-1.9Q125.67-4.75 125.67-11.4 125.67-18.05 129.15-21.63 132.62-25.2 137.57-25.2 142.52-25.2 145.02-22L145.02-22Q146.92-19.45 146.92-15.25L146.92-15.25Q146.92-14.25 146.82-13.15L146.82-13.15 128.97-13.15Q128.92-12.75 128.92-12.3L128.92-12.3ZM137.77-22.1L137.77-22.1Q134.67-22.1 132.47-20.23 130.27-18.35 129.42-15.4L129.42-15.4 143.97-15.4Q143.72-20.95 139.67-21.85L139.67-21.85Q138.77-22.1 137.77-22.1ZM168.66-25L168.66-30.9Q168.66-37.7 176.16-37.7L176.16-37.7Q178.11-37.7 179.61-37.3L179.61-37.3 179.11-34.5Q177.41-34.75 176.24-34.75 175.06-34.75 174.11-34.35L174.11-34.35Q171.91-33.35 171.91-29.75L171.91-29.75 171.91-25 178.11-25 178.11-22.1 171.91-22.1 171.91 0 168.66 0 168.66-22.1 165.86-22.1 166.31-25 168.66-25ZM180.76-6.4L180.76-6.4Q179.86-8.8 179.86-12L179.86-12Q179.86-18.15 183.31-21.68 186.76-25.2 191.96-25.2L191.96-25.2Q200.11-25.2 202.66-18.6L202.66-18.6Q203.61-16.2 203.61-13L203.61-13Q203.61-6.85 200.16-3.33 196.71 0.2 191.51 0.2L191.51 0.2Q183.36 0.2 180.76-6.4ZM183.11-12.35Q183.11-7.75 185.48-5.23 187.86-2.7 191.61-2.7 195.36-2.7 197.86-5.38 200.36-8.05 200.36-12.65 200.36-17.25 198.01-19.78 195.66-22.3 191.88-22.3 188.11-22.3 185.61-19.63 183.11-16.95 183.11-12.35ZM222.1-24.5L220.8-21.5Q220-21.95 219.1-21.95 218.2-21.95 218.1-21.9L218.1-21.9Q216.2-21.9 214.28-20.53 212.35-19.15 211-17.45L211-17.45 211 0 207.75 0 207.75-25 211-25.25 211-19.65Q212.85-22 214.15-22.95L214.15-22.95Q216.55-24.75 218.75-24.85L218.75-24.85Q219.05-24.9 219.85-24.9 220.65-24.9 222.1-24.5L222.1-24.5ZM253.14-25.25L253.14-25.25Q256.09-25.25 258.74-23.5L258.74-23.5 258.74-37.25 261.99-37.5 261.99-1.15 261.74-1.15Q260.19-0.5 256.57-0.15 252.94 0.2 251.54 0.2L251.54 0.2Q247.34 0.2 244.59-1.9L244.59-1.9Q240.74-4.8 240.74-11.45 240.74-18.1 244.32-21.68 247.89-25.25 253.14-25.25ZM258.74-3.2L258.74-21.35Q256.24-22.3 253.84-22.3L253.84-22.3Q249.24-22.3 246.62-19.5 243.99-16.7 243.99-11.55 243.99-6.4 246.84-4.3L246.84-4.3Q248.89-2.7 252.02-2.7 255.14-2.7 258.74-3.2L258.74-3.2ZM269.19-12.3L269.19-11.5Q269.19-2.7 277.59-2.7L277.59-2.7Q281.14-2.7 284.09-3.65L284.09-3.65Q284.84-3.9 285.14-4.05L285.14-4.05 285.89-1.4Q284.14-0.35 279.54 0.1L279.54 0.1Q278.24 0.2 276.79 0.2L276.79 0.2Q272.59 0.2 269.79-1.9L269.79-1.9Q265.94-4.75 265.94-11.4 265.94-18.05 269.41-21.63 272.89-25.2 277.84-25.2 282.79-25.2 285.29-22L285.29-22Q287.19-19.45 287.19-15.25L287.19-15.25Q287.19-14.25 287.09-13.15L287.09-13.15 269.24-13.15Q269.19-12.75 269.19-12.3L269.19-12.3ZM278.04-22.1L278.04-22.1Q274.94-22.1 272.74-20.23 270.54-18.35 269.69-15.4L269.69-15.4 284.24-15.4Q283.99-20.95 279.94-21.85L279.94-21.85Q279.04-22.1 278.04-22.1ZM307.08-24.5L306.28-21.7Q304.48-22.3 301.38-22.3 298.28-22.3 296.58-21.2 294.88-20.1 294.88-18.48 294.88-16.85 295.88-16.1 296.88-15.35 298.38-14.83 299.88-14.3 301.66-13.8 303.43-13.3 304.93-12.5L304.93-12.5Q308.43-10.7 308.43-7.15 308.43-3.6 306.01-1.7 303.58 0.2 298.93 0.2L298.93 0.2Q296.58 0.2 294.41-0.28 292.23-0.75 291.08-1.6L291.08-1.6 292.18-4.25Q293.33-3.25 296.83-2.8L296.83-2.8Q297.93-2.65 299.08-2.65L299.08-2.65Q301.68-2.65 303.43-3.73 305.18-4.8 305.18-7L305.18-7Q305.18-8.5 304.18-9.35 303.18-10.2 301.68-10.78 300.18-11.35 298.41-11.8 296.63-12.25 295.13-12.98 293.63-13.7 292.63-14.88 291.63-16.05 291.63-18.05L291.63-18.05Q291.63-21.3 294.13-23.25 296.63-25.2 300.83-25.2L300.83-25.2Q301.88-25.2 302.98-25.08 304.08-24.95 304.98-24.85L304.98-24.85 307.08-24.5ZM313.48-25L316.73-25.25 316.73 0 313.48 0 313.48-25ZM314.98-31.7Q313.98-31.7 313.45-32.35 312.93-33 312.93-34 312.93-35 313.5-35.63 314.08-36.25 315.08-36.25 316.08-36.25 316.7-35.63 317.33-35 317.33-33.9 317.33-32.8 316.65-32.25 315.98-31.7 314.98-31.7ZM325.67-9.65L325.67-9.65Q321.97-11.5 321.97-16.6L321.97-16.6Q321.97-20.8 324.87-23 327.77-25.2 332.27-25.2L332.27-25.2Q333.47-25.2 335.22-24.95L335.22-24.95 344.62-25.2 344.52-23.3 339.07-23.3Q341.82-21.25 341.82-17.13 341.82-13 339.07-10.78 336.32-8.55 331.97-8.55L331.97-8.55Q329.17-8.55 327.32-9.05L327.32-9.05Q326.37-8.15 326.37-6.95L326.37-6.95Q326.37-5.25 328.25-4.5 330.12-3.75 332.67-3.4L332.67-3.4Q338.32-2.65 340.82-1.3L340.82-1.3Q344.42 0.7 344.42 4.85 344.42 9 340.47 11L340.47 11Q337.47 12.5 333.22 12.5 328.97 12.5 326.67 11.85L326.67 11.85Q320.62 10.1 320.62 5.35 320.62 0.6 325.97-2.7L325.97-2.7Q323.87-4.25 323.87-6.3 323.87-8.35 325.67-9.65ZM341.17 4.8L341.17 4.8Q341.17 1.55 336.87 0.3L336.87 0.3Q335.67-0.05 332.57-0.55 329.47-1.05 327.72-1.75L327.72-1.75Q323.87 1.45 323.87 4.45L323.87 4.45Q323.87 5.75 324.27 6.6 324.67 7.45 325.67 8.1L325.67 8.1Q327.87 9.6 332.37 9.6L332.37 9.6Q338.27 9.6 340.37 7.1L340.37 7.1Q341.17 6.15 341.17 4.8ZM338.42-17.25L338.42-17.25Q338.42-22.55 332.12-22.55L332.12-22.55Q329.12-22.55 327.17-21.18 325.22-19.8 325.22-16.98 325.22-14.15 326.62-12.68 328.02-11.2 331.35-11.2 334.67-11.2 336.55-12.8 338.42-14.4 338.42-17.25ZM351.62-25.25L351.62-22.25Q355.37-25 358.72-25.15L358.72-25.15Q361.77-25.15 363.42-24.4 365.07-23.65 366.14-22.28 367.22-20.9 367.22-18.4L367.22-18.4 367.22 0 363.97 0 363.97-17.55Q363.97-19.4 363.17-20.4L363.17-20.4Q361.57-22.25 358.27-22.25L358.27-22.25Q355.12-22.1 351.62-20.2L351.62-20.2 351.62 0 348.37 0 348.37-25 351.62-25.25Z" opacity="1" transform="matrix(1,0,0,1,0,0)" fill="#ed1703" class="undefined-text-1" data-fill-palette-color="secondary" id="text-1"></path></svg></g></svg></g></svg></g></svg></g><g></g></svg></g></svg></g></svg></g></svg></g><defs></defs></svg><rect width="320" height="360" fill="none" stroke="none" visibility="hidden"></rect></g></svg></g></svg>