<svg xmlns="http://www.w3.org/2000/svg" version="1.1" xmlns:xlink="http://www.w3.org/1999/xlink" xmlns:svgjs="http://svgjs.dev/svgjs" width="2000" height="1500" viewBox="0 0 2000 1500"><rect width="2000" height="1500" fill="#0a1627"></rect><g transform="matrix(0.3522367030644593,0,0,0.3522367030644593,646.9010742694612,250.40485829959516)"><svg viewBox="0 0 174 247" data-background-color="#0a1627" preserveAspectRatio="xMidYMid meet" height="2839" width="2000" xmlns="http://www.w3.org/2000/svg" xmlns:xlink="http://www.w3.org/1999/xlink"><g id="tight-bounds" transform="matrix(1,0,0,1,0.2129629629629619,-0.09999999999999432)"><svg viewBox="0 0 173.57407407407408 247.2" height="247.2" width="173.57407407407408"><g><svg viewBox="0 0 173.57407407407408 247.2" height="247.2" width="173.57407407407408"><g><svg viewBox="0 0 173.57407407407408 247.2" height="247.2" width="173.57407407407408"><g id="textblocktransform"><svg viewBox="0 0 173.57407407407408 247.2" height="247.2" width="173.57407407407408" id="textblock"><g><svg viewBox="0 0 173.57407407407408 247.2" height="247.2" width="173.57407407407408"><g transform="matrix(1,0,0,1,0,0)"><svg width="173.57407407407408" viewBox="1.5 -31.950000762939453 22.75 32.400001525878906" height="247.2" data-palette-color="#fe0039"><g class="undefined-text-0" data-fill-palette-color="primary" id="text-0"><path d="M18.7 0L1.5 0 1.5-1.4 19.4-30.1 6.3-30.1Q5-30.1 4.9-29L4.9-29 4.15-23.15 3-23.15 3-25.5Q3-29.9 2.55-31.95L2.55-31.95Q4.15-31.5 8.1-31.5L8.1-31.5 24.25-31.5 24.25-30.1 6.3-1.4 20.5-1.4Q21.8-1.4 21.9-2.5L21.9-2.5 22.65-8.35 23.8-8.35 23.8-6Q23.8-1.6 24.25 0.45L24.25 0.45Q22.65 0 18.7 0L18.7 0Z" fill="#fe0039" data-fill-palette-color="primary"></path></g></svg></g></svg></g></svg></g></svg></g></svg></g><defs></defs></svg><rect width="173.57407407407408" height="247.2" fill="none" stroke="none" visibility="hidden"></rect></g></svg></g></svg>